{
	"asset":{
		"generator":"Khronos glTF Blender I/O v5.0.21",
		"version":"2.0"
	},
	"extensionsUsed":[
		"KHR_materials_specular"
	],
	"scene":0,
	"scenes":[
		{
			"name":"Scene",
			"nodes":[
				0
			]
		}
	],
	"nodes":[
		{
			"mesh":0,
			"name":"Medieval_House_03",
			"rotation":[
				0.7071068286895752,
				0,
				0,
				0.7071068286895752
			],
			"scale":[
				0.009999999776482582,
				0.009999999776482582,
				0.009999999776482582
			]
		}
	],
	"materials":[
		{
			"alphaMode":"BLEND",
			"doubleSided":true,
			"extensions":{
				"KHR_materials_specular":{
					"specularColorFactor":[
						2.0,
						2.0,
						2.0
					],
					"specularColorTexture":{
						"index":0
					}
				}
			},
			"name":"House_03_Mat",
			"normalTexture":{
				"index":1
			},
			"pbrMetallicRoughness":{
				"baseColorTexture":{
					"index":2
				},
				"metallicFactor":0,
				"metallicRoughnessTexture":{
					"index":3
				}
			}
		}
	],
	"meshes":[
		{
			"name":"Mesh",
			"primitives":[
				{
					"attributes":{
						"POSITION":0,
						"NORMAL":1,
						"TEXCOORD_0":2
					},
					"indices":3,
					"material":0
				}
			]
		}
	],
	"textures":[
		{
			"sampler":0,
			"source":0
		},
		{
			"sampler":0,
			"source":1
		},
		{
			"sampler":0,
			"source":2
		},
		{
			"sampler":0,
			"source":3
		}
	],
	"images":[
		{
			"mimeType":"image/webp",
			"name":"House_03_Specular",
			"uri":"textures/House_03_Specular.webp"
		},
		{
			"mimeType":"image/webp",
			"name":"House_03_Normal",
			"uri":"textures/House_03_Normal.webp"
		},
		{
			"mimeType":"image/webp",
			"name":"House_03_Diffuse",
			"uri":"textures/House_03_Diffuse.webp"
		},
		{
			"mimeType":"image/webp",
			"name":"House_03_Glossiness",
			"uri":"textures/House_03_Glossiness.webp"
		}
	],
	"accessors":[
		{
			"bufferView":0,
			"componentType":5126,
			"count":20265,
			"max":[
				439.1979675292969,
				314.61163330078125,
				-0.114593505859375
			],
			"min":[
				-439.1979675292969,
				-314.61163330078125,
				-1278.5531005859375
			],
			"type":"VEC3"
		},
		{
			"bufferView":1,
			"componentType":5126,
			"count":20265,
			"type":"VEC3"
		},
		{
			"bufferView":2,
			"componentType":5126,
			"count":20265,
			"type":"VEC2"
		},
		{
			"bufferView":3,
			"componentType":5123,
			"count":40776,
			"type":"SCALAR"
		}
	],
	"bufferViews":[
		{
			"buffer":0,
			"byteLength":243180,
			"byteOffset":0,
			"target":34962
		},
		{
			"buffer":0,
			"byteLength":243180,
			"byteOffset":243180,
			"target":34962
		},
		{
			"buffer":0,
			"byteLength":162120,
			"byteOffset":486360,
			"target":34962
		},
		{
			"buffer":0,
			"byteLength":81552,
			"byteOffset":648480,
			"target":34963
		}
	],
	"samplers":[
		{
			"magFilter":9729,
			"minFilter":9987
		}
	],
	"buffers":[
		{
			"byteLength":730032,
			"uri":"CASA.bin"
		}
	]
}
